<svg width="98" height="62" viewBox="0 0 98 62" fill="none" xmlns="http://www.w3.org/2000/svg">
<path d="M21.5687 50.9204L21.5707 50.9216C23.9502 52.3033 26.6347 52.9923 29.619 52.9923C32.6408 52.9923 35.3442 52.3035 37.7242 50.9216L37.7262 50.9204C40.102 49.5025 41.9808 47.5855 43.3602 45.1719C44.7796 42.7547 45.4877 40.0324 45.4877 37.0101C45.4877 33.9909 44.8379 31.2895 43.5338 28.9107C42.2692 26.4972 40.5237 24.5974 38.298 23.2157C36.0692 21.7942 33.553 21.0846 30.7549 21.0846C28.493 21.0846 26.3999 21.564 24.4786 22.5245C22.7557 23.3685 21.2578 24.503 19.9861 25.9271V11.1109C19.9861 10.1978 19.7066 9.44519 19.1345 8.87306C18.5623 8.30092 17.8097 8.02142 16.8966 8.02142C16.0186 8.02142 15.27 8.30246 14.6636 8.86844L14.6635 8.86836L14.6588 8.87306C14.0866 9.44519 13.8071 10.1978 13.8071 11.1109L13.8071 37.0101L13.8072 37.0125C13.8454 40.0335 14.5532 42.7545 15.934 45.1708C17.3135 47.585 19.1924 49.5023 21.5687 50.9204ZM38.1972 42.3685L38.1956 42.3716C37.3403 43.9705 36.1711 45.2322 34.6867 46.1602C33.2053 47.0487 31.5179 47.4949 29.619 47.4949C27.7592 47.4949 26.0711 47.0492 24.5504 46.1597C23.0665 45.2317 21.8975 43.9702 21.0424 42.3716C20.1878 40.7738 19.7589 38.988 19.7589 37.0101C19.7589 34.9936 20.1881 33.2087 21.0415 31.6502C21.8964 30.0891 23.0654 28.8651 24.5498 27.9744L24.5509 27.9737C26.0719 27.0463 27.7597 26.582 29.619 26.582C31.517 26.582 33.2038 27.0467 34.6853 27.9726L34.6883 27.9744C36.1727 28.8651 37.3416 30.0891 38.1965 31.6502L38.1965 31.6503L38.1982 31.6533C39.0884 33.2112 39.5359 34.995 39.5359 37.0101C39.5359 38.9866 39.0888 40.7713 38.1972 42.3685Z" fill="#D1A5FF" stroke="#D1A5FF" stroke-width="0.385714"/>
<path d="M50.2443 50.9322C49.6283 50.9322 49.0763 50.7882 48.5883 50.5002C48.1003 50.2042 47.7123 49.8042 47.4243 49.3002C47.1443 48.7962 47.0043 48.2282 47.0043 47.5962C47.0043 46.9562 47.1483 46.3842 47.4363 45.8802C47.7323 45.3762 48.1323 44.9802 48.6363 44.6922C49.1403 44.3962 49.7083 44.2482 50.3403 44.2482C50.9723 44.2482 51.5363 44.3962 52.0323 44.6922C52.5363 44.9802 52.9323 45.3762 53.2203 45.8802C53.5163 46.3842 53.6683 46.9562 53.6763 47.5962L53.3043 47.8842C53.3043 48.4602 53.1683 48.9802 52.8963 49.4442C52.6323 49.9002 52.2683 50.2642 51.8043 50.5362C51.3483 50.8002 50.8283 50.9322 50.2443 50.9322ZM50.3403 50.0922C50.8043 50.0922 51.2163 49.9842 51.5763 49.7682C51.9443 49.5522 52.2323 49.2562 52.4403 48.8802C52.6563 48.4962 52.7643 48.0682 52.7643 47.5962C52.7643 47.1162 52.6563 46.6882 52.4403 46.3122C52.2323 45.9362 51.9443 45.6402 51.5763 45.4242C51.2163 45.2002 50.8043 45.0882 50.3403 45.0882C49.8843 45.0882 49.4723 45.2002 49.1043 45.4242C48.7363 45.6402 48.4443 45.9362 48.2283 46.3122C48.0123 46.6882 47.9043 47.1162 47.9043 47.5962C47.9043 48.0682 48.0123 48.4962 48.2283 48.8802C48.4443 49.2562 48.7363 49.5522 49.1043 49.7682C49.4723 49.9842 49.8843 50.0922 50.3403 50.0922ZM53.2083 50.8722C53.0723 50.8722 52.9603 50.8322 52.8723 50.7522C52.7843 50.6642 52.7403 50.5522 52.7403 50.4162V48.3642L52.9683 47.4162L53.6763 47.5962V50.4162C53.6763 50.5522 53.6323 50.6642 53.5443 50.7522C53.4563 50.8322 53.3443 50.8722 53.2083 50.8722ZM56.0134 50.5602L55.2574 50.1522L59.7214 44.4762L60.3454 45.0042L56.0134 50.5602ZM55.5934 50.8722C55.3134 50.8722 55.1734 50.7322 55.1734 50.4522C55.1734 50.1722 55.3134 50.0322 55.5934 50.0322H60.0454C60.3254 50.0322 60.4654 50.1722 60.4654 50.4522C60.4654 50.7322 60.3254 50.8722 60.0454 50.8722H55.5934ZM55.5454 45.1482C55.2654 45.1482 55.1254 45.0082 55.1254 44.7282C55.1254 44.4482 55.2654 44.3082 55.5454 44.3082H59.9974C60.2774 44.3082 60.4174 44.4482 60.4174 44.7282C60.4174 45.0082 60.2774 45.1482 59.9974 45.1482H55.5454ZM62.7194 50.8722C62.5754 50.8722 62.4594 50.8322 62.3714 50.7522C62.2914 50.6642 62.2514 50.5482 62.2514 50.4042V44.7762C62.2514 44.6322 62.2914 44.5202 62.3714 44.4402C62.4594 44.3522 62.5754 44.3082 62.7194 44.3082C62.8554 44.3082 62.9634 44.3522 63.0434 44.4402C63.1314 44.5202 63.1754 44.6322 63.1754 44.7762V50.4042C63.1754 50.5482 63.1314 50.6642 63.0434 50.7522C62.9634 50.8322 62.8554 50.8722 62.7194 50.8722ZM62.7074 43.0602C62.5314 43.0602 62.3794 42.9962 62.2514 42.8682C62.1234 42.7402 62.0594 42.5842 62.0594 42.4002C62.0594 42.2002 62.1234 42.0442 62.2514 41.9322C62.3874 41.8122 62.5434 41.7522 62.7194 41.7522C62.8874 41.7522 63.0354 41.8122 63.1634 41.9322C63.2994 42.0442 63.3674 42.2002 63.3674 42.4002C63.3674 42.5842 63.3034 42.7402 63.1754 42.8682C63.0474 42.9962 62.8914 43.0602 62.7074 43.0602ZM66.2841 48.6762L65.7201 48.0642L69.8241 44.3562C69.9201 44.2682 70.0201 44.2282 70.1241 44.2362C70.2281 44.2362 70.3241 44.2842 70.4121 44.3802C70.5001 44.4762 70.5401 44.5802 70.5321 44.6922C70.5321 44.7962 70.4841 44.8882 70.3881 44.9682L66.2841 48.6762ZM65.9841 50.8722C65.8481 50.8722 65.7361 50.8322 65.6481 50.7522C65.5681 50.6642 65.5281 50.5522 65.5281 50.4162V41.9562C65.5281 41.8202 65.5681 41.7122 65.6481 41.6322C65.7361 41.5442 65.8481 41.5002 65.9841 41.5002C66.1201 41.5002 66.2281 41.5442 66.3081 41.6322C66.3961 41.7122 66.4401 41.8202 66.4401 41.9562V50.4162C66.4401 50.5522 66.3961 50.6642 66.3081 50.7522C66.2281 50.8322 66.1201 50.8722 65.9841 50.8722ZM70.4241 50.8122C70.3201 50.9002 70.2121 50.9362 70.1001 50.9202C69.9881 50.9122 69.8921 50.8562 69.8121 50.7522L67.1361 47.4642L67.7841 46.8882L70.4841 50.2122C70.5641 50.3082 70.6001 50.4122 70.5921 50.5242C70.5841 50.6282 70.5281 50.7242 70.4241 50.8122ZM74.6897 50.9322C74.0737 50.9322 73.5217 50.7882 73.0337 50.5002C72.5457 50.2042 72.1577 49.8042 71.8697 49.3002C71.5897 48.7962 71.4497 48.2282 71.4497 47.5962C71.4497 46.9562 71.5937 46.3842 71.8817 45.8802C72.1777 45.3762 72.5777 44.9802 73.0817 44.6922C73.5857 44.3962 74.1537 44.2482 74.7857 44.2482C75.4177 44.2482 75.9817 44.3962 76.4777 44.6922C76.9817 44.9802 77.3777 45.3762 77.6657 45.8802C77.9617 46.3842 78.1137 46.9562 78.1217 47.5962L77.7497 47.8842C77.7497 48.4602 77.6137 48.9802 77.3417 49.4442C77.0777 49.9002 76.7137 50.2642 76.2497 50.5362C75.7937 50.8002 75.2737 50.9322 74.6897 50.9322ZM74.7857 50.0922C75.2497 50.0922 75.6617 49.9842 76.0217 49.7682C76.3897 49.5522 76.6777 49.2562 76.8857 48.8802C77.1017 48.4962 77.2097 48.0682 77.2097 47.5962C77.2097 47.1162 77.1017 46.6882 76.8857 46.3122C76.6777 45.9362 76.3897 45.6402 76.0217 45.4242C75.6617 45.2002 75.2497 45.0882 74.7857 45.0882C74.3297 45.0882 73.9177 45.2002 73.5497 45.4242C73.1817 45.6402 72.8897 45.9362 72.6737 46.3122C72.4577 46.6882 72.3497 47.1162 72.3497 47.5962C72.3497 48.0682 72.4577 48.4962 72.6737 48.8802C72.8897 49.2562 73.1817 49.5522 73.5497 49.7682C73.9177 49.9842 74.3297 50.0922 74.7857 50.0922ZM77.6537 50.8722C77.5177 50.8722 77.4057 50.8322 77.3177 50.7522C77.2297 50.6642 77.1857 50.5522 77.1857 50.4162V48.3642L77.4137 47.4162L78.1217 47.5962V50.4162C78.1217 50.5522 78.0777 50.6642 77.9897 50.7522C77.9017 50.8322 77.7897 50.8722 77.6537 50.8722ZM81.3347 50.8722C81.0147 50.8722 80.7267 50.7842 80.4707 50.6082C80.2227 50.4322 80.0267 50.1882 79.8827 49.8762C79.7467 49.5642 79.6787 49.2042 79.6787 48.7962V41.9562C79.6787 41.8202 79.7187 41.7122 79.7987 41.6322C79.8867 41.5442 79.9987 41.5002 80.1347 41.5002C80.2707 41.5002 80.3787 41.5442 80.4587 41.6322C80.5467 41.7122 80.5907 41.8202 80.5907 41.9562V48.7962C80.5907 49.1402 80.6587 49.4202 80.7947 49.6362C80.9387 49.8522 81.1187 49.9602 81.3347 49.9602H81.6347C81.7547 49.9602 81.8507 50.0042 81.9227 50.0922C81.9947 50.1722 82.0307 50.2802 82.0307 50.4162C82.0307 50.5522 81.9787 50.6642 81.8747 50.7522C81.7787 50.8322 81.6507 50.8722 81.4907 50.8722H81.3347ZM85.9302 50.9322C85.2902 50.9322 84.7182 50.7882 84.2142 50.5002C83.7102 50.2122 83.3142 49.8162 83.0262 49.3122C82.7382 48.8082 82.5942 48.2362 82.5942 47.5962C82.5942 46.9482 82.7382 46.3722 83.0262 45.8682C83.3142 45.3642 83.7102 44.9682 84.2142 44.6802C84.7182 44.3922 85.2902 44.2482 85.9302 44.2482C86.5702 44.2482 87.1382 44.3922 87.6342 44.6802C88.1382 44.9682 88.5342 45.3642 88.8222 45.8682C89.1102 46.3722 89.2582 46.9482 89.2662 47.5962C89.2662 48.2362 89.1182 48.8082 88.8222 49.3122C88.5342 49.8162 88.1382 50.2122 87.6342 50.5002C87.1382 50.7882 86.5702 50.9322 85.9302 50.9322ZM85.9302 50.0922C86.3942 50.0922 86.8102 49.9842 87.1782 49.7682C87.5462 49.5522 87.8342 49.2562 88.0422 48.8802C88.2502 48.5042 88.3542 48.0762 88.3542 47.5962C88.3542 47.1162 88.2502 46.6882 88.0422 46.3122C87.8342 45.9282 87.5462 45.6282 87.1782 45.4122C86.8102 45.1962 86.3942 45.0882 85.9302 45.0882C85.4662 45.0882 85.0502 45.1962 84.6822 45.4122C84.3142 45.6282 84.0222 45.9282 83.8062 46.3122C83.5982 46.6882 83.4942 47.1162 83.4942 47.5962C83.4942 48.0762 83.5982 48.5042 83.8062 48.8802C84.0222 49.2562 84.3142 49.5522 84.6822 49.7682C85.0502 49.9842 85.4662 50.0922 85.9302 50.0922Z" fill="#D1A5FF"/>
</svg>
